<svg width="400" height="400" viewBox="0 0 400 400" fill="none" xmlns="http://www.w3.org/2000/svg">
  <defs>
    <radialGradient id="body-radial" cx="200" cy="180" r="160" gradientUnits="userSpaceOnUse">
      <stop offset="0%" stop-color="#38bdf8" />
      <stop offset="60%" stop-color="#0ea5e9" />
      <stop offset="100%" stop-color="#1d4ed8" />
    </radialGradient>
    <filter id="soft-shadow" x="-30%" y="-30%" width="160%" height="160%">
      <feGaussianBlur in="SourceAlpha" stdDeviation="6" />
      <feOffset dx="0" dy="10" result="offsetblur" />
      <feComponentTransfer><feFuncA type="linear" slope="0.3" /></feComponentTransfer>
      <feMerge><feMergeNode /><feMergeNode in="SourceGraphic" /></feMerge>
    </filter>
  </defs>

  <!-- Legs & Feet (Naturally Hanging VERTICALLY UNDER the desk) -->
  <g>
    <!-- WHITE Leg Stumps (Matching Reference) -->
    <path d="M 180 320 Q 180 350 180 375" stroke="white" stroke-width="24" stroke-linecap="round" fill="none" />
    <path d="M 220 320 Q 220 350 220 375" stroke="white" stroke-width="24" stroke-linecap="round" fill="none" />
    
    <!-- White Boots (Chunky & Rounded) -->
    <path d="M 180 375 Q 180 405 140 405 L 120 400 Q 100 380 150 365 Z" fill="white" />
    <path d="M 220 375 Q 220 405 260 405 L 280 400 Q 300 380 250 365 Z" fill="white" />
  </g>

  <!-- Desk & Laptop -->
  <g>
    <!-- Desk -->
    <path d="M 50 280 L 350 280 L 370 340 L 30 340 Z" fill="#b45309" /> 
    <rect x="70" y="340" width="20" height="60" fill="#78350f" /> 
    <rect x="310" y="340" width="20" height="60" fill="#78350f" /> 
    
    <!-- Laptop -->
    <path d="M 120 280 L 280 280 L 290 270 L 110 270 Z" fill="#94a3b8" /> 
    <rect x="130" y="210" width="140" height="60" rx="4" fill="#1e293b" /> 
    <rect x="135" y="215" width="130" height="50" rx="2" fill="#10b981" /> 
    <path d="M 185 240 L 195 250 L 215 230" stroke="white" stroke-width="4" stroke-linecap="round" stroke-linejoin="round" /> 
  </g>

  <!-- Mascot Body (Behind desk) -->
  <g>
    <path d="M 200 65 C 200 65 90 170 90 245 C 90 320 140 350 200 350 C 260 350 310 320 310 245 C 310 170 200 65 200 65 Z" fill="url(#body-radial)" />
    
    <!-- Eyes -->
    <ellipse cx="160" cy="205" rx="32" ry="48" fill="white" />
    <ellipse cx="240" cy="205" rx="32" ry="48" fill="white" />
    
    <!-- Pupils -->
    <circle cx="165" cy="215" r="16" fill="#0f172a" />
    <circle cx="245" cy="215" r="16" fill="#0f172a" />
    <circle cx="168" cy="208" r="6" fill="white" fill-opacity="0.8" />
    <circle cx="248" cy="208" r="6" fill="white" fill-opacity="0.8" />
    <!-- Smile -->
    <path d="M 178 262 Q 200 282 222 262" stroke="#0f172a" stroke-width="5" stroke-linecap="round" fill="none" />
  </g>

  <!-- Arms/Hands (In front of desk) -->
  <g>
    <!-- Arm (viewer's left) waving -->
    <path d="M 100 240 Q 60 210 40 240" stroke="#1d4ed8" stroke-width="26" stroke-linecap="round" fill="none" />
    <!-- GLOVE Hand -->
    <path d="M 40 240 C 20 220 10 240 25 260 C 20 270 35 285 50 270 C 60 275 75 255 65 235 C 60 215 45 220 40 235" fill="white" stroke="#e2e8f0" stroke-width="1" />

    <!-- Arm (viewer's right) resting on belly/desk -->
    <path d="M 300 240 Q 320 280 270 310" stroke="#1d4ed8" stroke-width="26" stroke-linecap="round" fill="none" />
    <!-- GLOVE Hand on belly -->
    <path d="M 270 310 C 250 330 220 310 230 290 C 225 275 245 260 265 275 C 285 270 300 290 285 310 C 280 320 275 315 270 310 Z" fill="white" stroke="#e2e8f0" stroke-width="1" />
  </g>
</svg>
